<svg id="Capa_2" data-name="Capa 2" xmlns="http://www.w3.org/2000/svg" viewBox="0 0 332.02 225.1"><defs><style>.cls-1,.cls-3{fill:#96110d;}.cls-2{fill:none;stroke:#96110d;stroke-miterlimit:10;stroke-width:3px;}.cls-3{font-size:25px;font-family:Modern No. 20;}</style></defs><title>Logo</title><circle class="cls-1" cx="37.89" cy="91.12" r="8.63"/><circle class="cls-1" cx="88.89" cy="91.87" r="8.63"/><circle class="cls-1" cx="139.89" cy="142.87" r="8.63"/><circle class="cls-1" cx="139.89" cy="91.87" r="8.63"/><circle class="cls-1" cx="139.89" cy="40.12" r="8.63"/><circle class="cls-1" cx="191.64" cy="142.87" r="8.63"/><circle class="cls-1" cx="242.64" cy="176.62" r="8.63"/><circle class="cls-1" cx="293.64" cy="176.63" r="8.63"/><circle class="cls-1" cx="242.64" cy="113.62" r="8.63"/><circle class="cls-1" cx="242.64" cy="71.62" r="8.63"/><circle class="cls-1" cx="293.64" cy="71.63" r="8.63"/><circle class="cls-1" cx="242.64" cy="8.63" r="8.63"/><circle class="cls-1" cx="242.64" cy="40.12" r="8.63"/><circle class="cls-1" cx="191.64" cy="40.12" r="8.63"/><line class="cls-2" x1="37.89" y1="91.12" x2="88.89" y2="91.87"/><line class="cls-2" x1="139.89" y1="40.12" x2="88.89" y2="91.87"/><line class="cls-2" x1="139.89" y1="91.87" x2="88.89" y2="91.87"/><line class="cls-2" x1="139.89" y1="142.87" x2="88.89" y2="91.87"/><line class="cls-2" x1="191.64" y1="142.87" x2="139.89" y2="142.87"/><line class="cls-2" x1="191.64" y1="40.12" x2="139.89" y2="40.12"/><line class="cls-2" x1="191.64" y1="142.87" x2="242.64" y2="176.62"/><line class="cls-2" x1="242.64" y1="113.62" x2="191.64" y2="142.87"/><line class="cls-2" x1="242.64" y1="71.62" x2="191.64" y2="40.12"/><line class="cls-2" x1="242.64" y1="40.12" x2="191.64" y2="40.12"/><line class="cls-2" x1="242.64" y1="8.63" x2="191.64" y2="40.12"/><line class="cls-2" x1="293.64" y1="176.63" x2="240.26" y2="176.62"/><line class="cls-2" x1="293.64" y1="71.63" x2="242.64" y2="71.62"/><text class="cls-3" transform="translate(0 219.87)">Visualización entidades Públicas</text></svg>