<svg xmlns="http://www.w3.org/2000/svg" xmlns:svg="http://www.w3.org/2000/svg" width="500" height="225.10000610351562"><rect id="backgroundrect" width="100%" height="100%" x="0" y="0" fill="none" stroke="none"/>
<defs>
	<style>.cls-1,.cls-3{fill:#DE2121;}.cls-2{fill:none;stroke:#DE2121;stroke-miterlimit:10;stroke-width:3px;}.cls-3{font-size:80px;font-family:Modern No. 20;}</style>
	<pattern height="100" width="100" y="0" x="0" patternUnits="userSpaceOnUse" id="gridpattern">
		<image xmlns:xlink="http://www.w3.org/1999/xlink" height="100" width="100" y="0" x="0" id="svg_31" xlink:href="undefined"/>
	</pattern>
</defs>
<title>Logo</title>
<g class="currentLayer">
	<title>Layer 1</title>
	<g id="svg_29"/>
	<g class="" id="svg_30"><text class="cls-3" y="140.28571432828903" x="14.142858803272247" id="svg_28" fill="black">V.E.P.</text><line class="cls-2" x1="323.3185952305794" y1="113.15571373701096" x2="272.31856471300125" y2="113.15571373701096" id="svg_17" stroke="null"/><g class="" id="svg_32"><circle class="cls-1" cx="221.31856471300125" cy="112.40571373701096" r="8.630000114440918" id="svg_1" stroke="null"/><circle class="cls-1" cx="272.31856471300125" cy="113.15571373701096" r="8.630000114440918" id="svg_2" stroke="null"/><circle class="cls-1" cx="323.3185952305794" cy="164.15571373701096" r="8.630000114440918" id="svg_3" stroke="null"/><circle class="cls-1" cx="323.3185952305794" cy="113.15571373701096" r="8.630000114440918" id="svg_4" stroke="null"/><circle class="cls-1" cx="323.3185952305794" cy="61.405713737010956" r="8.630000114440918" id="svg_5" stroke="null"/><circle class="cls-1" cx="375.0685952305794" cy="164.15571373701096" r="8.630000114440918" id="svg_6" stroke="null"/><circle class="cls-1" cx="426.0685952305794" cy="197.90571373701096" r="8.630000114440918" id="svg_7" stroke="null"/><circle class="cls-1" cx="477.0685952305794" cy="197.91572350263596" r="8.630000114440918" id="svg_8" stroke="null"/><circle class="cls-1" cx="426.0685952305794" cy="134.90571373701096" r="8.630000114440918" id="svg_9" stroke="null"/><circle class="cls-1" cx="426.0685952305794" cy="92.90571373701096" r="8.630000114440918" id="svg_10" stroke="null"/><circle class="cls-1" cx="477.0685952305794" cy="92.9157082438469" r="8.630000114440918" id="svg_11" stroke="null"/><circle class="cls-1" cx="426.0685952305794" cy="29.91571396589279" r="8.630000114440918" id="svg_12" stroke="null"/><circle class="cls-1" cx="426.0685952305794" cy="61.405713737010956" r="8.630000114440918" id="svg_13" stroke="null"/><circle class="cls-1" cx="375.0685952305794" cy="61.405713737010956" r="8.630000114440918" id="svg_14" stroke="null"/><line class="cls-2" x1="221.31856471300125" y1="112.40571373701096" x2="272.31856471300125" y2="113.15571373701096" id="svg_15" stroke="null"/><line class="cls-2" x1="323.3185952305794" y1="61.405713737010956" x2="272.31856471300125" y2="113.15571373701096" id="svg_16"/><line class="cls-2" x1="323.3185952305794" y1="164.15571373701096" x2="272.31856471300125" y2="113.15571373701096" id="svg_18" stroke="null"/><line class="cls-2" x1="375.0685952305794" y1="164.15571373701096" x2="323.3185952305794" y2="164.15571373701096" id="svg_19"/><line class="cls-2" x1="375.0685952305794" y1="61.405713737010956" x2="323.3185952305794" y2="61.405713737010956" id="svg_20" stroke="null"/><line class="cls-2" x1="375.0685952305794" y1="164.15571373701096" x2="426.0685952305794" y2="197.90571373701096" id="svg_21"/><line class="cls-2" x1="426.0685952305794" y1="134.90571373701096" x2="375.0685952305794" y2="164.15571373701096" id="svg_22" stroke="null"/><line class="cls-2" x1="426.0685952305794" y1="92.90571373701096" x2="375.0685952305794" y2="61.405713737010956" id="svg_23" stroke="null"/><line class="cls-2" x1="426.0685952305794" y1="61.405713737010956" x2="375.0685952305794" y2="61.405713737010956" id="svg_24" stroke="null"/><line class="cls-2" x1="426.0685952305794" y1="29.91571396589279" x2="375.0685952305794" y2="61.405713737010956" id="svg_25" stroke="null"/><line class="cls-2" x1="477.0685952305794" y1="197.91572350263596" x2="423.6885903477669" y2="197.90571373701096" id="svg_26" stroke="null"/><line class="cls-2" x1="477.0685952305794" y1="92.9157082438469" x2="426.0685952305794" y2="92.90571373701096" id="svg_27" stroke="null"/></g></g></g>
</svg>